<?xml version="1.0" standalone="no"?>
<!DOCTYPE svg PUBLIC "-//W3C//DTD SVG 20010904//EN"
 "http://www.w3.org/TR/2001/REC-SVG-20010904/DTD/svg10.dtd">
<svg version="1.0" xmlns="http://www.w3.org/2000/svg"
 width="225.000000pt" height="225.000000pt" viewBox="0 0 225.000000 225.000000"
 preserveAspectRatio="xMidYMid meet">
<metadata>
Created by potrace 1.14, written by Peter Selinger 2001-2017
</metadata>
<g transform="translate(0.000000,225.000000) scale(0.100000,-0.100000)"
fill="#000000" stroke="none">
<path d="M0 1125 l0 -1125 1125 0 1125 0 0 1125 0 1125 -1125 0 -1125 0 0
-1125z m1151 589 c130 -62 184 -145 184 -284 0 -102 -21 -156 -85 -220 -23
-23 -40 -43 -38 -44 2 -1 20 -13 40 -25 47 -28 85 -73 111 -131 27 -60 29
-185 4 -257 -23 -67 -95 -146 -161 -180 -94 -48 -132 -53 -413 -53 l-263 0 0
565 c0 624 -2 605 63 646 30 19 47 20 262 17 l230 -3 66 -31z"/>
<path d="M795 1525 c-24 -23 -25 -30 -25 -151 l0 -126 118 3 c131 4 159 15
189 72 24 46 23 129 -3 164 -34 47 -79 63 -172 63 -75 0 -85 -2 -107 -25z"/>
<path d="M804 1052 c-27 -18 -34 -56 -34 -186 l0 -136 134 0 c122 0 136 2 167
23 45 29 69 80 69 142 0 69 -26 115 -80 143 -37 18 -60 22 -145 22 -55 0 -105
-4 -111 -8z"/>
</g>
</svg>
